<?xml version="1.0" standalone="no"?>
<!DOCTYPE svg PUBLIC "-//W3C//DTD SVG 20010904//EN"
 "http://www.w3.org/TR/2001/REC-SVG-20010904/DTD/svg10.dtd">
<svg version="1.0" xmlns="http://www.w3.org/2000/svg"
 width="580.000000pt" height="580.000000pt" viewBox="0 0 580.000000 580.000000"
 preserveAspectRatio="xMidYMid meet">
<metadata>
Created by potrace 1.14, written by Peter Selinger 2001-2017
</metadata>
<g transform="translate(0.000000,580.000000) scale(0.100000,-0.100000)"
fill="#000000" stroke="none">
<path d="M4335 4975 c-188 -34 -439 -78 -512 -91 -113 -19 -241 -42 -343 -60
-212 -37 -256 -45 -425 -74 -290 -50 -524 -90 -615 -105 -154 -25 -253 -43
-373 -65 -108 -21 -119 -25 -130 -49 -9 -19 -13 -364 -17 -1341 l-5 -1315
-115 4 c-126 3 -195 -9 -310 -56 -195 -79 -341 -204 -405 -348 -75 -171 -52
-293 81 -429 73 -73 113 -97 204 -119 102 -24 282 -19 360 10 8 3 21 7 28 9
12 2 83 34 140 62 17 9 32 20 32 24 0 5 6 8 13 8 24 0 197 155 197 176 0 8 5
14 10 14 27 0 75 160 79 260 0 14 3 63 6 110 4 47 9 499 12 1006 l6 921 26 0
c14 1 42 4 61 7 19 3 51 8 70 10 55 8 92 14 125 20 17 3 46 8 65 10 83 9 136
17 155 23 11 3 31 7 45 8 76 7 136 16 154 22 12 3 32 7 46 9 29 3 82 10 125
17 66 11 111 18 125 19 8 0 35 5 60 10 25 5 59 11 75 13 103 10 138 15 146 21
6 3 25 7 42 9 31 3 68 9 132 20 17 2 46 7 65 9 44 6 107 15 140 20 14 3 45 7
70 10 60 8 90 13 118 19 17 5 22 1 23 -14 1 -10 3 -31 4 -46 1 -16 6 -331 10
-701 7 -576 6 -675 -6 -683 -8 -5 -50 -9 -94 -9 -197 -1 -313 -27 -440 -100
-216 -123 -364 -366 -325 -532 30 -127 172 -282 277 -301 10 -2 36 -9 58 -15
51 -14 227 -14 280 1 22 6 45 11 50 12 6 1 13 3 18 5 4 1 12 4 17 5 6 1 11 3
13 4 1 2 13 5 27 7 13 2 27 9 31 15 3 6 8 9 10 7 8 -5 89 35 89 44 0 5 5 6 10
3 6 -3 13 1 16 9 3 9 13 16 21 16 7 0 25 11 39 25 14 14 29 25 33 25 7 0 62
58 89 95 36 47 60 90 56 97 -3 4 0 8 7 8 7 0 10 3 6 6 -3 4 1 13 9 21 8 8 12
19 9 24 -4 5 -2 9 3 9 5 0 15 18 22 40 11 32 12 287 6 1392 -4 744 -7 1396 -7
1448 1 125 -19 264 -39 266 -8 1 -46 -4 -85 -11z m-209 -547 c9 -14 6 -120 -3
-129 -8 -8 -92 -23 -573 -105 -146 -25 -382 -65 -525 -89 -143 -24 -354 -60
-470 -80 -115 -19 -232 -38 -260 -41 l-50 -5 5 92 c5 90 6 93 30 96 14 1 39 5
55 7 17 2 54 7 83 10 29 3 58 8 63 12 6 3 25 7 42 9 66 6 133 16 152 22 11 3
31 7 45 9 59 5 126 15 145 21 11 3 31 7 45 9 69 6 135 16 142 20 5 3 25 8 46
10 42 5 83 11 127 19 17 3 46 7 65 9 47 6 89 13 125 20 17 3 55 8 85 11 30 3
64 8 75 12 11 3 29 8 40 9 11 1 36 5 55 7 19 3 55 8 80 11 25 3 59 9 75 12 17
4 41 8 55 10 65 6 183 24 187 28 6 6 53 -6 59 -16z"/>
</g>
</svg>
