<svg xmlns="http://www.w3.org/2000/svg" id="load-screen-title" viewBox="0 0 512 110"
     preserveAspectRatio="xMidYMid meet">
    <g id="logo-text-g">
        <path d="M2641 1199 c-103 -13 -168 -38 -219 -84 -43 -39 -46 -45 -50 -102 -4 -56 -2 -64 21 -87 35 -35 89 -35 122 -1 28 27 31 43 11 70 -12 16 -17 17 -44 6 -46 -19 -72 -7 -72 33 0 18 9 45 20 58 22 29 89 63 143 73 l37 7 0 -125 c0 -68 3 -138 6 -155 6 -29 4 -30 -35 -37 -53 -9 -55 -33 -3 -37 l37 -3 3 -150 c3 -170 9 -185 73 -185 65 0 69 11 69 186 l0 154 95 0 c88 0 95 1 95 20 0 19 -7 20 -95 20 l-95 0 0 160 0 160 48 0 c26 0 75 -7 107 -16 86 -23 90 -23 90 6 0 22 -5 26 -50 32 -68 9 -236 7 -314 -3z"></path>
        <path d="M1814 1171 c-44 -20 -67 -43 -36 -34 42 11 47 -11 71 -343 27 -363 29 -370 93 -361 69 9 71 15 58 170 l-12 136 25 55 c41 90 102 132 126 87 21 -38 -21 -126 -88 -189 -24 -22 -24 -23 -7 -60 62 -128 194 -290 261 -318 45 -19 130 -18 188 2 54 18 72 37 28 28 -78 -16 -201 89 -309 260 l-54 85 38 33 c71 62 87 157 35 209 -52 52 -107 35 -190 -58 -28 -31 -52 -55 -55 -52 -2 2 -9 74 -15 159 -7 85 -17 165 -23 177 -18 37 -71 43 -134 14z"></path>
        <path d="M1514 1151 c-48 -22 -65 -41 -36 -41 11 0 24 -6 30 -12 5 -7 27 -155 47 -328 24 -200 43 -324 52 -339 13 -20 21 -22 51 -17 20 3 44 13 54 23 17 18 16 30 -22 348 -22 182 -43 338 -46 348 -6 19 -42 37 -72 37 -9 0 -36 -9 -58 -19z"></path>
        <path d="M735 990 c-55 -10 -143 -32 -195 -49 -185 -60 -260 -126 -260 -228 0 -63 19 -97 62 -112 64 -23 120 28 104 94 -8 30 -29 32 -63 5 -31 -24 -37 -25 -57 -4 -20 20 -20 57 -1 95 18 34 118 102 143 97 12 -2 23 -33 43 -118 45 -190 45 -178 7 -188 -18 -4 -34 -16 -36 -25 -3 -13 5 -16 39 -14 l42 2 33 -145 c19 -79 38 -148 43 -153 24 -24 116 1 124 34 3 10 -10 83 -28 161 -17 79 -31 145 -29 146 1 2 42 13 90 23 49 11 90 21 91 23 2 2 1 10 -2 18 -6 14 -14 14 -78 -3 -117 -30 -111 -34 -137 79 -12 53 -28 121 -35 149 -7 29 -9 55 -5 58 25 15 160 27 199 18 41 -11 41 -11 41 17 0 16 -7 30 -16 34 -9 3 -16 6 -17 5 -1 0 -47 -9 -102 -19z"></path>
        <path d="M3108 970 c-46 -14 -52 -21 -26 -34 23 -12 23 -14 21 -151 -2 -77 -5 -170 -9 -207 -4 -59 -3 -69 15 -87 24 -24 68 -27 97 -6 20 13 22 28 29 184 l7 170 53 27 c49 26 55 27 82 14 15 -8 31 -16 36 -18 4 -2 7 16 7 41 0 81 -52 88 -123 16 -47 -47 -57 -48 -57 -10 0 55 -60 83 -132 61z"></path>
        <path d="M4958 968 c-42 -15 -33 -26 16 -21 99 12 165 -62 174 -193 2 -41 1 -74 -3 -74 -5 0 -17 7 -26 16 -10 9 -37 20 -59 24 -119 22 -223 -72 -251 -225 -28 -152 64 -276 203 -275 134 1 227 135 258 369 25 185 -32 326 -152 375 -42 18 -119 20 -160 4z m153 -319 c19 -19 21 -29 16 -88 -8 -89 -52 -225 -86 -263 -29 -32 -72 -41 -94 -19 -7 7 -12 44 -12 94 0 95 32 213 71 265 30 39 73 43 105 11z"></path>
        <path d="M3493 935 c-31 -13 -48 -30 -20 -19 7 2 21 -1 30 -9 17 -12 17 -22 1 -221 -16 -202 -16 -210 2 -223 21 -15 100 -18 109 -3 8 12 35 324 35 402 0 48 -4 59 -22 72 -28 20 -92 20 -135 1z"></path>
        <ellipse rx="80" ry="60" cx="3587" cy="1075"></ellipse>
        <path d="M3926 895 c-57 -20 -108 -66 -138 -125 -35 -65 -39 -171 -9 -235 60 -130 216 -164 342 -74 37 26 33 35 -7 14 -34 -18 -93 -19 -128 -4 -41 19 -80 84 -80 135 l-1 45 110 48 c127 55 153 81 139 133 -18 65 -134 97 -228 63z m108 -47 c19 -27 21 -78 4 -101 -7 -9 -40 -28 -73 -41 -58 -23 -60 -24 -63 -5 -5 30 25 122 48 147 27 28 64 28 84 0z"></path>
        <path d="M1183 851 c-111 -19 -185 -135 -168 -266 26 -192 182 -287 329 -201 114 67 140 247 56 380 -44 69 -125 102 -217 87z m58 -51 c10 -6 25 -23 33 -38 22 -43 46 -174 46 -252 0 -62 -3 -74 -25 -95 -28 -29 -42 -31 -72 -10 -54 38 -106 303 -72 368 20 38 51 47 90 27z"></path>
        <path d="M4312 850 c-37 -9 -54 -20 -29 -20 35 0 35 -32 -1 -238 -40 -226 -40 -227 29 -238 59 -9 66 3 99 191 26 151 33 173 55 193 32 27 66 28 88 4 23 -26 22 -110 -4 -235 -26 -127 -61 -206 -100 -221 -39 -14 -37 -26 4 -26 53 0 133 46 168 97 81 118 113 347 58 417 -41 52 -120 52 -189 1 -32 -23 -35 -24 -38 -8 -8 49 -14 63 -30 72 -29 15 -75 20 -110 11z"></path>
    </g>
    <style>
        #logo-text-g > * {
            opacity: 0;
            transform: translateY(10px) translate(-21px,125px) scale(0.1,-0.1);;
            animation: logo 0.6s ease-out 0.2s forwards;
            /* Doesn't seem to be any way to link this easily to the rest of our styles.
                vuetify imports image with image-background which doesn't propagate CSS
                so it seems. TODO don't store duplicate colours
            */
            fill: #055581;
        }

        @keyframes logo {
            100% {
                opacity: 1;
                transform: translateY(0) translate(-21px,125px) scale(0.1,-0.1);;
            }
        }
    </style>
</svg>